# xmcd
#
# Track frame offsets:
#	150
#	12858
#	32372
#	44501
#	57873
#	76304
#	92421
#	111247
#	124498
#	147212
#	161526
#
# Disc length: 2369 seconds
#
# Revision: 1
# Processed by: cddbd v1.5.2PL0 Copyright (c) Steve Scherf et al.
# Submitted via: audiograbber 1.83.01
#
DISCID=86093f0b
DTITLE=STATE LINE MOB - RUCKUS
DYEAR=2008
DGENRE=Southern Rock
TTITLE0=IT KEEPS ME GOING
TTITLE1=HOOKED
TTITLE2=HOLDING YOU NEXT TO ME
TTITLE3=McNAIRY COUNTY LINE
TTITLE4=WHO DO YOU LOVE
TTITLE5=AMERICAN BEAUTY
TTITLE6=BABY I MISS YOU
TTITLE7=I NEED ROCK N ROLL
TTITLE8=ITS UP TO YOU
TTITLE9=SOUTHERN COMFORT
TTITLE10=BONUS TRACK - GENERAL LEE
EXTD=Songs written by Phillip Crunk, Dana Crunk and Chris Sevier \nLuck Publish
EXTD=ing (BMI]\nChris Sevier Music (ASCAP]\nSome recording at OMNI Studios, Nas
EXTD=hville ,TN
EXTT0=
EXTT1=
EXTT2=
EXTT3=
EXTT4=
EXTT5=
EXTT6=
EXTT7=
EXTT8=
EXTT9=
EXTT10=
PLAYORDER=
